Coordinates
version=1
nRows=11
nColumns=36
inDegrees=yes

Units are S.I. units (second, meters, Newtons, ...)
If the header above contains a line with 'inDegrees', this indicates whether rotational values are in degrees (yes) or radians (no).

endheader
time	pelvis_tilt	pelvis_list	pelvis_rotation	pelvis_tx	pelvis_ty	pelvis_tz	hip_flexion_r	hip_adduction_r	hip_rotation_r	knee_angle_r	knee_angle_r_beta	ankle_angle_r	subtalar_angle_r	mtp_angle_r	hip_flexion_l	hip_adduction_l	hip_rotation_l	knee_angle_l	knee_angle_l_beta	ankle_angle_l	subtalar_angle_l	mtp_angle_l	lumbar_extension	lumbar_bending	lumbar_rotation	arm_flex_r	arm_add_r	arm_rot_r	elbow_flex_r	pro_sup_r	arm_flex_l	arm_add_l	arm_rot_l	elbow_flex_l	pro_sup_l
      3.93333330	      4.42475595	      1.04067574	     11.96694604	      0.59348012	      0.93296189	     -0.19650800	     44.55300894	     -6.03414167	      2.88548165	     22.09732473	      0.38567107	     -2.02145501	     -1.18336229	     -7.49999987	      4.64778093	      5.30701197	     -2.35078332	     25.09001746	      0.43790341	     15.70819757	    -12.79877666	     -7.49999987	    -13.79311816	    -10.86867535	      1.75944777	     41.00588412	      5.54145258	     55.89873121	    128.59013141	     96.21014258	     38.36184367	     -3.58505168	     64.65511758	    123.26362665	     96.88331073
      3.95000000	      4.60168470	      1.26656873	     12.30208735	      0.59350724	      0.93246766	     -0.19715842	     44.32041660	     -6.29201477	      2.85661714	     21.95182622	      0.38313164	     -2.52170888	     -1.26089030	     -7.49999987	      4.92194472	      5.59731074	     -1.88709200	     25.91921264	      0.45237560	     16.08568702	    -13.10204604	     -7.49999987	    -14.31986572	    -11.09104729	      1.63408798	     41.46337494	      5.44189460	     55.73347652	    128.63653101	     95.76569803	     38.77524498	     -3.73839143	     63.93712331	    123.07003650	     96.53643000
      3.96666670	      4.63789488	      1.37158709	     12.42529948	      0.60153895	      0.92628691	     -0.19736021	     44.04272058	     -6.30044034	      3.06842113	     21.79034800	      0.38031332	     -2.48233273	     -1.25312071	     -7.49999987	      5.01432024	      5.73183954	     -1.64733357	     26.44726269	      0.46159181	     16.58546404	    -13.20345916	     -7.49999987	    -14.25146105	    -11.13741807	      1.89735985	     41.62446643	      5.58087587	     55.50688682	    128.58655425	     95.73706842	     38.64921122	     -3.72895209	     63.80707960	    123.09396958	     96.51524971
      3.98333330	      4.85077605	      1.49713573	     12.55998989	      0.59724115	      0.92746484	     -0.19967759	     43.62652876	     -6.42499326	      3.02229652	     21.73749167	      0.37939080	     -2.79257499	     -1.32622857	     -7.49999987	      4.95882327	      5.89303351	     -1.35573873	     26.99735378	      0.47119271	     17.14088661	    -13.07738707	     -7.49999987	    -14.42950992	    -11.17698020	      2.14564882	     41.98355296	      5.52559307	     55.01738668	    128.47014259	     95.85333434	     38.56985085	     -3.51578085	     63.23277914	    122.99295763	     96.65144533
      4.00000000	      5.27453497	      1.65786603	     12.68927918	      0.60116552	      0.92633986	     -0.19716180	     42.68679934	     -6.44858591	      2.97056108	     21.05310076	      0.36744593	     -3.18277342	     -1.16776102	     -7.49999987	      4.48229123	      5.96511595	     -1.24000505	     27.15939033	      0.47402078	     17.82030428	    -12.44982124	     -7.49999987	    -14.74466179	    -11.29760913	      2.58648643	     42.31301778	      5.78788004	     54.30018749	    128.40213434	     96.07809185	     38.41567935	     -3.25304496	     62.75760076	    122.87949700	     96.98500758
      4.01666670	      5.51898053	      2.00994142	     12.86355659	      0.59691429	      0.92077126	     -0.19934585	     42.37122394	     -6.76619523	      3.12462209	     20.93287314	      0.36534756	     -3.59590291	     -1.03109957	     -7.49999987	      4.69667295	      6.35991130	     -1.05314839	     28.04736881	      0.48951893	     18.42493161	    -12.21835445	     -7.49999987	    -15.12178442	    -11.62018407	      2.87335371	     42.76704141	      5.82667074	     53.94703288	    128.46001253	     98.14252167	     38.61462212	     -2.87422501	     62.36155828	    122.76046781	    100.00373973
      4.03333330	      5.66157419	      2.43643395	     13.04567195	      0.59646722	      0.91828467	     -0.19860905	     42.20749510	     -7.14221910	      3.30154163	     20.82046928	      0.36338574	     -3.87203387	     -0.85425186	     -7.49999987	      5.14095056	      6.86106412	     -0.83410873	     29.15807308	      0.50890438	     19.11637159	    -12.20665203	     -7.49999987	    -15.58268841	    -12.07058666	      2.80375587	     42.95264633	      6.10501478	     53.81504180	    128.43143910	     96.76704413	     39.02102637	     -3.11101495	     62.00688562	    122.59205952	     98.47921742
      4.05000000	      5.93778319	      2.60639817	     13.02006862	      0.60495519	      0.91315308	     -0.19980367	     41.61923725	     -7.16273066	      3.54901735	     20.42807935	      0.35653724	     -3.99229812	     -1.08042857	     -7.49999987	      5.01079545	      7.04083254	     -0.63818618	     29.82608643	      0.52056341	     19.99612484	    -12.03672654	     -7.49999987	    -15.73112816	    -12.23574463	      3.01374537	     42.46348209	      6.30587810	     53.58927219	    128.41213990	     98.03874745	     38.58018778	     -3.35552955	     61.31741025	    121.94346292	    100.14887084
      4.06666670	      5.95941965	      2.70604641	     12.96364891	      0.60881298	      0.90746657	     -0.20239121	     41.57270590	     -7.14461818	      3.93646685	     20.73683951	      0.36192613	     -3.88973070	     -1.36941095	     -7.49999987	      5.39129155	      7.24372098	     -0.43791041	     30.91870686	      0.53963324	     21.19803035	    -11.81502080	     -7.49999987	    -15.50222724	    -12.36683722	      2.94441918	     41.94216513	      6.57221111	     54.34628127	    128.38838635	     93.79186268	     38.14528717	     -3.84677235	     61.49047975	    121.50725143	     95.20314480
      4.08333330	      5.98398384	      2.75174345	     12.94698832	      0.60856176	      0.90587450	     -0.20297672	     41.55259179	     -7.10547835	      4.34213015	     20.92664544	      0.36523886	     -4.10501372	     -2.01192710	     -7.49999987	      5.96430018	      7.35102630	     -0.43792116	     32.33054513	      0.56427446	     22.68974601	    -11.19709947	     -7.49999987	    -15.33565895	    -12.46485822	      3.17838093	     41.03533064	      6.56065415	     54.40235831	    128.39711704	     99.44105957	     37.30956116	     -4.03728296	     60.99859559	    120.94780166	    100.51363451
      4.10000000	      6.11027346	      3.03389301	     13.03827060	      0.60754151	      0.90619723	     -0.20234419	     41.23424802	     -7.32946224	      4.51881566	     20.69034209	      0.36111459	     -4.48819660	     -2.25405090	     -7.49999987	      6.28638404	      7.69244248	     -0.42290416	     33.48788298	      0.58447382	     23.60888790	    -11.15620343	     -7.49999987	    -15.45860666	    -12.78754518	      3.07948423	     40.40773963	      6.88551251	     54.70571132	    128.03957474	     98.33944184	     37.02083172	     -4.37649578	     60.86810084	    120.75464038	     99.37646516
